HIERARCHY
ROOT Hips
{
  OFFSET -35.2597 29.1586 114.425
  CHANNELS 6 Xposition Yposition Zposition Zrotation Xrotation Yrotation
  JOINT LeftUpLeg
  {
    OFFSET 8.64259 1.95398 -2.38835
    CHANNELS 3 Zrotation Xrotation Yrotation
    JOINT LeftLeg
    {
      OFFSET 43.7702 0 0
      CHANNELS 3 Zrotation Xrotation Yrotation
      JOINT LeftFoot
      {
        OFFSET 40.6238 0 0
        CHANNELS 3 Zrotation Xrotation Yrotation
        JOINT LeftToeBase
        {
          OFFSET 12.7242 0 0
          CHANNELS 3 Zrotation Xrotation Yrotation
          End Site
          {
            OFFSET 0 0 0
          }
        }
      }
    }
  }
  JOINT RightUpLeg
  {
    OFFSET -8.2249 1.95398 -2.59336
    CHANNELS 3 Zrotation Xrotation Yrotation
    JOINT RightLeg
    {
      OFFSET 43.5653 0 0
      CHANNELS 3 Zrotation Xrotation Yrotation
      JOINT RightFoot
      {
        OFFSET 40.6238 0 0
        CHANNELS 3 Zrotation Xrotation Yrotation
        JOINT RightToeBase
        {
          OFFSET 12.7242 0 0
          CHANNELS 3 Zrotation Xrotation Yrotation
          End Site
          {
            OFFSET 0 0 0
          }
        }
      }
    }
  }
  JOINT Spine
  {
    OFFSET 0.165834 0.87714 6.61349
    CHANNELS 3 Zrotation Xrotation Yrotation
    JOINT Spine1
    {
      OFFSET 7.38963 1.71661e-005 0
      CHANNELS 3 Zrotation Xrotation Yrotation
      JOINT Spine2
      {
        OFFSET 11.9445 1.14441e-005 0
        CHANNELS 3 Zrotation Xrotation Yrotation
        JOINT Spine3
        {
          OFFSET 14.7254 4.19617e-005 0
          CHANNELS 3 Zrotation Xrotation Yrotation
          JOINT Spine4
          {
            OFFSET 10.9679 0 0
            CHANNELS 3 Zrotation Xrotation Yrotation
            JOINT RightShoulder
            {
              OFFSET 2.46616 -1.6653 3.69651
              CHANNELS 3 Zrotation Xrotation Yrotation
              JOINT RightArm
              {
                OFFSET 13.0012 0 0
                CHANNELS 3 Zrotation Xrotation Yrotation
                JOINT RightForeArm
                {
                  OFFSET 28.7848 1.62311e-005 0
                  CHANNELS 3 Zrotation Xrotation Yrotation
                  JOINT RightHand
                  {
                    OFFSET 26.5688 1.62095e-005 0
                    CHANNELS 3 Zrotation Xrotation Yrotation
                    End Site
                    {
                      OFFSET 0 0 0
                    }
                  }
                }
              }
            }
            JOINT LeftShoulder
            {
              OFFSET 2.38034 -1.29275 -3.7523
              CHANNELS 3 Zrotation Xrotation Yrotation
              JOINT LeftArm
              {
                OFFSET 16.3182 6.07031e-005 0
                CHANNELS 3 Zrotation Xrotation Yrotation
                JOINT LeftForeArm
                {
                  OFFSET 27.0901 0 0
                  CHANNELS 3 Zrotation Xrotation Yrotation
                  JOINT LeftHand
                  {
                    OFFSET 24.5451 1.51738e-005 0
                    CHANNELS 3 Zrotation Xrotation Yrotation
                    End Site
                    {
                      OFFSET 0 0 0
                    }
                  }
                }
              }
            }
            JOINT Neck
            {
              OFFSET 5.0226 -0.0266342 0
              CHANNELS 3 Zrotation Xrotation Yrotation
              JOINT Head
              {
                OFFSET 6.69364 2.86102e-005 0
                CHANNELS 3 Zrotation Xrotation Yrotation
                End Site
                {
                  OFFSET 0 0 0
                }
              }
            }
          }
        }
      }
    }
  }
}
MOTION
Frames:	13
Frame Time:	0.0416667
9.09203 100.43 20.5395 -156.351 -82.7257 -157.214 -174.966 -2.62849 88.0976 -12.8456 5.80414 -0.193736 70.5941 6.4499 -1.65464 17.2874 -11.9611 9.00558 173.174 -4.14037 89.6685 -13.3181 0.148663 0.722915 69.8278 -6.11602 2.22731 22.3758 1.14123 4.48944 0.20918 7.64935 -90.1484 11.5756 0.346701 -0.331522 -0.0953211 0.331768 -0.346465 -22.6307 0.430304 -0.211997 -2.61805 0.430304 -0.212001 88.7688 -35.7807 -106.967 44.8176 6.57426 -6.01782 -5.72154 -47.549 -5.71183 -20.8796 2.79004 -20.7642 -87.1369 -61.2282 84.7084 -25.1366 -12.6273 -16.8269 3.73644 43.2741 -4.80354 3.34859 -0.389574 -10.3498 5.75268 -0.836782 -1.22929 -3.94092 -0.616694 1.09695 
9.09869 100.443 20.5238 -154.503 -82.9869 -155.159 -174.983 -2.13408 88.2338 -13.0766 5.61436 -0.124562 70.6678 6.41978 -1.70828 17.6604 -12.0461 9.49771 173.338 -3.9344 89.8802 -13.1262 0.154782 0.781453 69.6579 -6.05688 2.35141 22.439 1.16242 4.36093 0.229603 7.61798 -90.1789 11.6385 0.372911 -0.395418 -0.0324876 0.355141 -0.411453 -22.5678 0.474511 -0.26506 -2.55518 0.474506 -0.265063 88.7508 -35.6231 -107.055 45.0136 6.4614 -6.12193 -5.7167 -47.4701 -5.71127 -21.0585 2.64611 -19.8432 -87.0684 -61.2816 84.8069 -25.0326 -12.6662 -17.0156 3.72887 43.153 -4.79689 2.26193 -0.327372 -10.2231 6.0071 -0.826665 -1.03265 -4.22607 -0.638611 0.888825 
9.06062 100.439 20.5365 -155.03 -82.9149 -155.654 -174.969 -2.22222 88.2804 -13.1197 5.55995 -0.0883825 70.7472 6.44002 -1.80335 17.1748 -12.1299 9.13792 173.294 -3.9698 89.9127 -13.1552 0.148857 0.823643 69.5909 -6.06181 2.31696 22.4843 1.1766 4.27094 0.210902 7.62409 -90.1845 11.6262 0.333109 -0.402244 -0.0447984 0.315088 -0.41653 -22.58 0.438603 -0.283534 -2.56737 0.438598 -0.283541 88.6565 -35.487 -107.276 45.0559 6.48207 -5.97481 -5.71037 -47.4156 -5.70995 -21.2002 2.78062 -20.4639 -87.0397 -61.3828 84.8586 -24.9997 -12.693 -16.8725 3.75295 43.4501 -4.82403 2.949 -0.364948 -10.2707 6.00256 -0.766525 -0.892291 -4.25406 -0.606006 0.861953 
9.03569 100.453 20.5676 -155.574 -82.7613 -156.345 -174.987 -2.54812 88.1732 -12.8458 5.37337 -0.106715 70.6208 6.39634 -1.88402 17.2481 -11.882 8.85263 173.227 -4.30283 89.773 -13.0433 0.0693388 0.826707 69.5605 -6.00625 1.93319 22.5392 1.0866 4.46365 0.21878 7.64143 -90.1708 11.5915 0.355277 -0.377034 -0.0794225 0.338338 -0.392308 -22.6147 0.452162 -0.25283 -2.6021 0.452167 -0.252823 88.669 -35.5719 -107.223 44.8506 6.55126 -6.05081 -5.71743 -47.5973 -5.71421 -20.529 2.68314 -20.4406 -87.162 -61.3841 84.6963 -24.9366 -12.7238 -16.8853 3.78361 43.8212 -4.85804 2.67463 -0.362457 -10.526 5.92003 -0.798226 -0.769708 -4.1721 -0.656102 0.700479 
9.00773 100.451 20.5726 -155.005 -82.7838 -155.692 -175.008 -2.45328 88.223 -12.9575 5.43538 -0.0477192 70.7382 6.45484 -1.82003 17.3136 -12.0427 9.14911 173.332 -4.27356 89.9271 -12.9072 0.0346355 0.787175 69.5535 -6.09616 1.74118 22.3015 1.11194 4.65218 0.226042 7.63601 -90.175 11.6024 0.367724 -0.386793 -0.0685332 0.350347 -0.402601 -22.6039 0.466966 -0.258392 -2.59123 0.466969 -0.258395 88.6793 -35.6122 -107.19 44.9553 6.4916 -6.10391 -5.73364 -47.792 -5.72515 -21.2379 2.67448 -19.8646 -87.1471 -61.115 84.6793 -25.08 -12.6568 -16.8132 3.73127 43.0631 -4.80163 1.68436 -0.334445 -11.2486 6.09691 -0.885237 -0.901482 -4.40387 -0.718178 0.763357 
9.00516 100.447 20.5781 -155.704 -82.7848 -156.418 -175.024 -2.49806 88.1922 -12.946 5.61941 -0.0316665 70.6322 6.40345 -1.72766 17.4888 -12.2195 9.57775 173.258 -4.18939 89.8362 -13.0542 0.403768 0.792781 69.5981 -5.98783 2.60962 22.5371 1.18648 4.18466 0.218826 7.63911 -90.1616 11.5962 0.35969 -0.359147 -0.0747595 0.343536 -0.374644 -22.6101 0.450997 -0.234449 -2.59747 0.450999 -0.234447 88.5528 -35.7717 -107.362 44.6901 6.62397 -6.04021 -5.72806 -47.7791 -5.72446 -20.6825 2.73728 -20.6012 -87.1705 -60.8175 84.6074 -25.5064 -12.4425 -16.8116 3.75868 43.4033 -4.83281 3.46758 -0.386389 -10.1489 5.9774 -0.871511 -1.03944 -4.19231 -0.679385 0.816614 
8.97137 100.466 20.6107 -155.659 -82.5934 -156.475 -174.888 -2.79347 88.237 -12.7517 5.86883 -0.204348 70.4642 6.42565 -1.54245 17.4457 -11.9438 9.1364 173.274 -4.31833 89.7937 -13.1599 -0.249964 0.666735 69.5359 -5.9879 1.9488 22.5936 1.12612 4.2892 0.235149 7.65959 -90.1425 11.5553 0.401131 -0.325256 -0.115683 0.386429 -0.342605 -22.6512 0.480329 -0.189667 -2.63855 0.480336 -0.189662 88.5691 -35.9831 -107.257 44.5746 6.63087 -6.20594 -5.74924 -47.9768 -5.73548 -20.3677 2.56525 -19.8764 -87.2241 -60.5354 84.4968 -25.6779 -12.3581 -16.7872 3.74678 43.206 -4.82111 2.92874 -0.373313 -10.4696 6.09499 -0.981445 -1.55486 -4.36549 -0.703927 1.35429 
8.95967 100.461 20.5511 -154.69 -82.7924 -155.341 -174.972 -2.36318 88.3036 -13.0703 5.59821 -0.0478645 70.656 6.38749 -1.8473 17.543 -12.177 9.56993 173.452 -4.24697 90.0308 -12.8035 0.124948 0.677567 69.4886 -6.04933 2.09357 22.4104 1.17751 4.34848 0.237532 7.6286 -90.1793 11.6173 0.388558 -0.397524 -0.0536738 0.370691 -0.414246 -22.5891 0.490068 -0.26237 -2.5764 0.490072 -0.262367 88.6323 -35.6659 -107.256 44.8692 6.54115 -6.05788 -5.82556 -48.8817 -5.78784 -21.1221 2.58235 -19.4405 -87.2618 -60.7848 84.4809 -25.6005 -12.3989 -16.7626 3.76703 43.4561 -4.8446 3.26619 -0.373745 -10.1171 5.98079 -0.935906 -1.07171 -4.33921 -0.740994 0.939504 
8.95564 100.441 20.5498 -153.197 -82.8577 -153.738 -174.905 -2.24649 88.408 -12.9962 5.5289 -0.0885098 70.705 6.46401 -1.60808 17.3414 -11.914 8.9907 173.547 -4.11831 90.15 -12.8472 0.23937 0.679445 69.5395 -6.03112 2.43515 22.2955 1.26966 4.21849 0.253078 7.61849 -90.166 11.6375 0.425671 -0.375021 -0.0334062 0.408748 -0.393404 -22.5689 0.518699 -0.229744 -2.55628 0.518691 -0.229763 88.452 -35.9896 -107.467 44.5154 6.62625 -6.32246 -5.77994 -48.3443 -5.7566 -19.2194 2.35534 -19.5656 -87.1756 -60.1924 84.5143 -25.935 -12.2338 -16.7239 3.74559 43.1321 -4.82165 2.74015 -0.357126 -10.3361 5.97198 -1.04055 -1.75706 -4.2442 -0.722738 1.32202 
8.94328 100.465 20.5654 -155.035 -82.7738 -155.871 -174.963 -2.56147 88.1832 -12.728 5.80083 -0.157916 70.3476 6.33969 -1.54593 17.6238 -11.7144 8.97997 173.306 -4.53804 89.7754 -12.6707 -0.180198 0.716215 69.5044 -5.97369 1.99576 22.5985 1.154 4.20883 0.227822 7.63957 -90.1663 11.5953 0.375375 -0.370167 -0.0756653 0.35873 -0.386337 -22.611 0.469278 -0.240234 -2.5984 0.469272 -0.240243 88.5772 -35.6685 -107.355 44.9398 6.45854 -6.25425 -5.83089 -48.9406 -5.79155 -20.9594 2.32863 -18.168 -87.2919 -60.8183 84.4452 -25.5102 -12.4478 -16.7177 3.73076 42.8871 -4.80657 1.97316 -0.341785 -10.9902 5.36847 -1.01067 -1.55917 -3.14327 -0.738281 1.92737 
8.91041 100.456 20.5091 -152.189 -83.0036 -152.637 -174.822 -1.95586 88.5581 -13.1678 5.54595 -0.138316 70.6827 6.3064 -1.991 17.711 -12.1678 9.72411 173.614 -3.92463 90.2818 -12.7568 0.212435 0.72863 69.3714 -6.00698 2.27293 22.3486 1.19469 4.36951 0.273885 7.58906 -90.1799 11.6965 0.460431 -0.406744 0.0255807 0.442078 -0.426623 -22.51 0.561382 -0.249563 -2.49736 0.561384 -0.249564 88.4729 -35.9934 -107.427 44.7083 6.53588 -6.3452 -5.80662 -48.6578 -5.77477 -19.4147 2.13532 -18.1012 -87.2823 -60.0577 84.3519 -26.0974 -12.1583 -16.6485 3.70875 42.5276 -4.78469 2.71162 -0.327461 -9.70566 5.14608 -1.19294 -2.23261 -3.09294 -0.800499 2.23014 
8.89567 100.438 20.5133 -153.056 -82.8921 -153.667 -174.859 -2.15841 88.4142 -13.055 5.53695 -0.154411 70.66 6.3891 -1.68765 17.6408 -11.8544 9.20034 173.347 -4.0009 90.0418 -12.8588 -0.0998385 0.841046 69.5676 -6.15798 2.09823 22.2545 1.29264 4.19936 0.266013 7.60869 -90.1644 11.6572 0.452116 -0.374736 -0.0137065 0.435183 -0.394283 -22.5493 0.543831 -0.221536 -2.53667 0.543835 -0.221536 88.5001 -35.9277 -107.402 44.6011 6.59399 -6.30239 -5.81297 -48.7333 -5.77922 -19.0251 2.1826 -18.6725 -87.2377 -59.9141 84.3919 -26.2337 -12.0906 -16.6393 3.71624 42.5995 -4.79713 2.59988 -0.335018 -10.0049 5.18609 -1.19171 -2.29768 -3.12348 -0.789005 2.33119 
8.89482 100.443 20.4878 -152.835 -82.8666 -153.455 -174.829 -2.14467 88.4324 -13.0739 5.57121 -0.201572 70.6937 6.39529 -1.66541 17.399 -12.0132 9.19086 173.504 -4.02576 90.0859 -12.8955 0.336412 0.696979 69.5978 -6.05636 2.51509 22.3663 1.15119 4.47194 0.271421 7.62552 -90.1796 11.6236 0.455825 -0.405178 -0.0473469 0.437552 -0.424862 -22.5829 0.556521 -0.249453 -2.57026 0.556519 -0.249462 88.5478 -35.8493 -107.344 44.6225 6.54759 -6.44396 -5.78792 -48.4379 -5.76207 -19.6559 2.17353 -18.1617 -87.3292 -60.2609 84.3173 -26.0409 -12.1775 -16.7608 3.73191 42.744 -4.81315 2.79593 -0.344514 -9.99338 5.32848 -1.26548 -2.04333 -3.27829 -0.906382 2.20483 
